<svg id="Lager_1" data-name="Lager 1" xmlns="http://www.w3.org/2000/svg" viewBox="0 0 30 30"><defs><style>.cls-1{fill:#010102;}</style></defs><title>Namnlöst-3</title><path class="cls-1" d="M15,0A15,15,0,1,0,30,15,15,15,0,0,0,15,0Zm0,28.59A13.59,13.59,0,1,1,28.59,15,13.6,13.6,0,0,1,15,28.59Z"/><circle class="cls-1" cx="11.08" cy="10.31" r="1.07"/><circle class="cls-1" cx="19.2" cy="10.31" r="1.07"/><path class="cls-1" d="M15,17.12a11.47,11.47,0,0,0-9,4L7.12,22A10,10,0,0,1,15,18.53,10.12,10.12,0,0,1,22.89,22l1.1-.89A11.54,11.54,0,0,0,15,17.12Z"/></svg>