<svg id="Lager_1" data-name="Lager 1" xmlns="http://www.w3.org/2000/svg" viewBox="0 0 30 31.69"><defs><style>.cls-1{fill:#000100;}</style></defs><title>Namnlöst-4</title><g id="Layer_2" data-name="Layer 2"><path class="cls-1" d="M19.48,16.41A2.1,2.1,0,0,0,21,15l0.78-2.29,0.31,0.11a0.28,0.28,0,0,0,.35-0.17l0.42-1.23A0.28,0.28,0,0,0,22.7,11L12.61,7.6a0.28,0.28,0,0,0-.35.17L11.84,9a0.28,0.28,0,0,0,.17.35l0.31,0.11-0.79,2.33a1.69,1.69,0,0,0,.34,2l2,2.45-0.23.67c-0.78.17-2.82,0.61-3.1,0.69a2.1,2.1,0,0,0-1.54,1.45L8.38,21l-0.31-.11a0.28,0.28,0,0,0-.35.17L7.3,22.34a0.28,0.28,0,0,0,.17.35l10.1,3.43A0.28,0.28,0,0,0,17.92,26l0.42-1.23a0.28,0.28,0,0,0-.17-0.35l-0.31-.11,0.68-2a1.69,1.69,0,0,0-.34-2l-2-2.45,0.23-.67C17.16,16.93,19.2,16.49,19.48,16.41Zm-4.27,1.79,2.22,2.66a1.28,1.28,0,0,1,.29.42,1.42,1.42,0,0,1-.12.66l-0.68,2L9.32,21.37l0.67-2a1.12,1.12,0,0,1,.88-0.81c0.22-.06,2.1-0.48,3.31-0.74a0.5,0.5,0,0,0,.36-0.32l0.41-1.2a0.5,0.5,0,0,0-.09-0.48l-2.21-2.65h0a1.28,1.28,0,0,1-.29-0.42,1.42,1.42,0,0,1,.12-0.66l0.79-2.33,7.59,2.58-0.78,2.29a1.12,1.12,0,0,1-.88.81c-0.22.06-2.1,0.48-3.31,0.74a0.5,0.5,0,0,0-.36.32l-0.41,1.2A0.5,0.5,0,0,0,15.21,18.19Z"/><path class="cls-1" d="M21.21,27.65L20.53,28l-0.11.06-0.11,0a12.44,12.44,0,0,1-3.09,1h0l-0.76.11h0a12.85,12.85,0,0,1-1.41.08,12.61,12.61,0,0,1-11.87-8.4l-0.08-.22a12.6,12.6,0,0,1,0-7.93l0-.08,0.08-.22,0-.1A12.64,12.64,0,0,1,12,4.47h0l0.18,0h0a12.58,12.58,0,0,1,2.75-.32V5.4c0,0.4.26,0.52,0.56,0.26l2.73-2.32a0.59,0.59,0,0,0,0-.94L15.47,0.13C15.16-.12,14.9,0,14.91.4V1.69A14.9,14.9,0,0,0,4.4,6.09Q4,6.5,3.6,6.94h0l0,0A14.88,14.88,0,0,0,0,16.25s0,0.05,0,.08,0,0.23,0,.35,0,0.38,0,.57c0,0,0,0,0,.07a14.87,14.87,0,0,0,3.11,8.54l0,0c0.19,0.24.38,0.48,0.58,0.7l0,0Q4.07,27,4.4,27.3a14.89,14.89,0,0,0,8.08,4.18h0a15.2,15.2,0,0,0,2.48.2,14.88,14.88,0,0,0,6.33-1.4l0.12-.07,0.13-.05c0.27-.13.55-0.28,0.81-0.43A1.21,1.21,0,1,0,21.21,27.65Z"/><path class="cls-1" d="M25.46,9.67a1.21,1.21,0,1,0,2-1.35c-0.17-.25-0.35-0.5-0.53-0.74A1.21,1.21,0,1,0,25,9C25.16,9.25,25.31,9.46,25.46,9.67Z"/><path class="cls-1" d="M27,12.84c0.08,0.24.15,0.49,0.21,0.74a1.21,1.21,0,0,0,2.34-.6c-0.08-.29-0.16-0.59-0.25-0.88A1.21,1.21,0,1,0,27,12.84Z"/><path class="cls-1" d="M26.22,24.81a1.21,1.21,0,0,0-1.7.12c-0.17.19-.34,0.38-0.52,0.57a1.21,1.21,0,1,0,1.73,1.69c0.21-.22.42-0.44,0.62-0.67A1.21,1.21,0,0,0,26.22,24.81Z"/><path class="cls-1" d="M28.83,15.91a1.21,1.21,0,0,0-1.24,1.17c0,0.26,0,.51,0,0.77a1.21,1.21,0,0,0,1.09,1.31h0.11a1.21,1.21,0,0,0,1.2-1.1c0-.3,0-0.61.06-0.91A1.21,1.21,0,0,0,28.83,15.91Z"/><path class="cls-1" d="M28.29,20.59a1.21,1.21,0,0,0-1.56.68c-0.09.24-.19,0.48-0.3,0.71a1.21,1.21,0,1,0,2.19,1c0.13-.28.25-0.56,0.36-0.84A1.21,1.21,0,0,0,28.29,20.59Z"/><path class="cls-1" d="M24.19,6.33a1.21,1.21,0,0,0-.25-1.69c-0.24-.18-0.5-0.36-0.75-0.52a1.21,1.21,0,0,0-1.32,2L22.5,6.58A1.21,1.21,0,0,0,24.19,6.33Z"/></g></svg>